<svg xmlns="http://www.w3.org/2000/svg" width="1600" height="900" viewBox="0 0 1600 900" fill="none">
  <defs>
    <linearGradient id="bg4" x1="0" y1="0" x2="1" y2="1">
      <stop offset="0%" stop-color="#061425"/>
      <stop offset="50%" stop-color="#0f223d"/>
      <stop offset="100%" stop-color="#231637"/>
    </linearGradient>
    <linearGradient id="accent4" x1="0" y1="0" x2="1" y2="1">
      <stop offset="0%" stop-color="#38bdf8"/>
      <stop offset="100%" stop-color="#a855f7"/>
    </linearGradient>
  </defs>
  <rect width="1600" height="900" fill="url(#bg4)"/>
  <rect x="110" y="100" width="1380" height="700" rx="36" fill="#101d36" stroke="#ffffff20"/>
  <text x="180" y="205" fill="#f8fafc" font-size="62" font-family="Inter, Arial, sans-serif" font-weight="700">financetracker</text>
  <text x="180" y="252" fill="#94a3b8" font-size="25" font-family="Inter, Arial, sans-serif">Personal expense and savings intelligence</text>
  <rect x="180" y="315" width="420" height="170" rx="24" fill="#1f2d4b"/>
  <rect x="620" y="315" width="420" height="170" rx="24" fill="url(#accent4)" opacity="0.66"/>
  <rect x="1060" y="315" width="360" height="170" rx="24" fill="#1f2d4b"/>
  <rect x="180" y="510" width="1240" height="240" rx="24" fill="#1f2d4b"/>
  <path d="M230 680C360 620 480 700 620 610C780 510 970 645 1120 560C1220 510 1320 540 1390 500" stroke="url(#accent4)" stroke-width="9" stroke-linecap="round"/>
</svg>
